<?xml version="1.0" encoding="UTF-8" standalone="no"?>
<svg xmlns="http://www.w3.org/2000/svg" height="24" width="24" version="1.1">
 <g>
  <path class="yelp-svg-fill" d="m7 8v6.697 0.303h0.0078a5 6.3027 0 0 0 3.9922 5.867v-6.867h2v6.871a5 6.3027 0 0 0 3.988 -5.871h0.012v-0.303-6.697h-10z"/>
  <path class="yelp-svg-fill" d="m12 3a4 4 0 0 0 -4 4h8a4 4 0 0 0 -4 -4z"/>
  <path class="yelp-svg-fill" d="m16 12h6v1h-6z"/>
  <path class="yelp-svg-fill" d="m9.2045 16.361h6v1h-6z" transform="rotate(-30)"/>
  <path class="yelp-svg-fill" d="m21.704 4.2894h6v1h-6z" transform="rotate(30)"/>
  <path class="yelp-svg-fill" d="m2 12h6v1h-6z"/>
  <path class="yelp-svg-fill" d="m5.5801 4.3612h6v1h-6z" transform="rotate(30)"/>
  <path class="yelp-svg-fill" d="m-6.9199 16.289h6v1h-6z" transform="rotate(-30)"/>
 </g>
</svg>
