<?xml version="1.0" encoding="UTF-8" standalone="no"?>
<svg xmlns="http://www.w3.org/2000/svg" height="24" width="24" version="1.1">
 <g>
  <path class="yelp-svg-fill" d="m5.4473 12.572c-2.039 0.957-3.4473 3.019-3.4473 5.428v4h20v-4c0-2.406-1.406-4.466-3.441-5.424a8 8 0 0 1 -6.559 3.424 8 8 0 0 1 -6.5527 -3.428z"/>
  <path class="yelp-svg-fill" d="m12 3a5 5 0 0 0 -5 5 5 5 0 0 0 5 5 5 5 0 0 0 5 -5 5 5 0 0 0 -5 -5zm0 3a2 2 0 0 1 2 2 2 2 0 0 1 -2 2 2 2 0 0 1 -2 -2 2 2 0 0 1 2 -2z"/>
  <path class="yelp-svg-fill" d="m15.312 6 3.688 1v2l-3.4688 1z"/>
  <path class="yelp-svg-fill" d="m14 11.312-1 3.688h-2l-1-3.469z"/>
  <path class="yelp-svg-fill" d="m10 4.6875 1-3.6875h2l1 3.4688z"/>
  <path class="yelp-svg-fill" d="m8.6875 10-3.6875-1v-2l3.4688-1z"/>
  <path class="yelp-svg-fill" d="m12.928 4.2435 3.3146-1.9003 1.4142 1.4142-1.7457 3.1599z"/>
  <path class="yelp-svg-fill" d="m15.757 8.9281 1.9003 3.3146-1.4142 1.4142-3.1599-1.7457z"/>
  <path class="yelp-svg-fill" d="m8.2435 7.0719-1.9004-3.3145 1.4143-1.4143 3.1596 1.7457z"/>
  <path class="yelp-svg-fill" d="m11.072 11.757-3.3146 1.9-1.4143-1.414 1.7457-3.1602z"/>
 </g>
</svg>
