<?xml version="1.0" encoding="UTF-8" standalone="no"?>
<svg xmlns="http://www.w3.org/2000/svg" height="24" width="24" version="1.1">
 <path class="yelp-svg-fill" d="m11.92 3.3047a1.3872 1.3872 0 0 0 -1.129 0.6933l-8.6055 14.922a1.3872 1.3872 0 0 0 1.2012 2.08l17.226-0.008a1.3872 1.3872 0 0 0 1.201 -2.08l-8.619-14.916a1.3872 1.3872 0 0 0 -1.136 -0.6913 1.3872 1.3872 0 0 0 -0.139 0zm0.08 4.6953a1 1 0 0 1 1 1v6a1 1 0 0 1 -1 1 1 1 0 0 1 -1 -1v-6a1 1 0 0 1 1 -1zm0 9a1 1 0 0 1 1 1 1 1 0 0 1 -1 1 1 1 0 0 1 -1 -1 1 1 0 0 1 1 -1z"/>
</svg>
